<mxfile host="app.diagrams.net" modified="2020-11-29T04:16:27.368Z" agent="5.0 (Windows NT 6.1; Win64; x64) AppleWebKit/537.36 (KHTML, like Gecko) Chrome/87.0.4280.66 Safari/537.36" etag="-Oey5z3ZyVJTa-O1Jo1v" version="13.10.4" type="github">
  <diagram id="5xF5BC7TGLF5zo5FUWQ7" name="Page-1">
    <mxGraphModel dx="1865" dy="524" grid="1" gridSize="10" guides="1" tooltips="1" connect="1" arrows="1" fold="1" page="1" pageScale="1" pageWidth="827" pageHeight="1169" math="0" shadow="0">
      <root>
        <mxCell id="0" />
        <mxCell id="1" parent="0" />
        <mxCell id="1egGHa9eGUn63UV28B0T-28" value="" style="rounded=0;whiteSpace=wrap;html=1;fillColor=#d5e8d4;strokeColor=#82b366;" vertex="1" parent="1">
          <mxGeometry x="330" y="250" width="410" height="180" as="geometry" />
        </mxCell>
        <mxCell id="1egGHa9eGUn63UV28B0T-27" value="" style="rounded=0;whiteSpace=wrap;html=1;fillColor=#d5e8d4;strokeColor=#82b366;" vertex="1" parent="1">
          <mxGeometry x="-90" y="250" width="410" height="180" as="geometry" />
        </mxCell>
        <mxCell id="1egGHa9eGUn63UV28B0T-1" value="轻空间/零终端" style="rounded=0;whiteSpace=wrap;html=1;" vertex="1" parent="1">
          <mxGeometry x="-60" y="180" width="360" height="50" as="geometry" />
        </mxCell>
        <mxCell id="1egGHa9eGUn63UV28B0T-7" value="网盘" style="rounded=0;whiteSpace=wrap;html=1;" vertex="1" parent="1">
          <mxGeometry x="360" y="370" width="160" height="50" as="geometry" />
        </mxCell>
        <mxCell id="1egGHa9eGUn63UV28B0T-8" value="自研帐号" style="rounded=0;whiteSpace=wrap;html=1;" vertex="1" parent="1">
          <mxGeometry x="-60" y="290" width="160" height="50" as="geometry" />
        </mxCell>
        <mxCell id="1egGHa9eGUn63UV28B0T-9" value="管控前端" style="rounded=0;whiteSpace=wrap;html=1;" vertex="1" parent="1">
          <mxGeometry x="340" y="180" width="350" height="50" as="geometry" />
        </mxCell>
        <mxCell id="1egGHa9eGUn63UV28B0T-10" value="帐号配置" style="rounded=0;whiteSpace=wrap;html=1;fillColor=#dae8fc;strokeColor=#6c8ebf;" vertex="1" parent="1">
          <mxGeometry x="360" y="290" width="160" height="50" as="geometry" />
        </mxCell>
        <mxCell id="1egGHa9eGUn63UV28B0T-21" value="" style="edgeStyle=orthogonalEdgeStyle;rounded=0;orthogonalLoop=1;jettySize=auto;html=1;endArrow=classic;endFill=1;startArrow=classic;startFill=1;" edge="1" parent="1" source="1egGHa9eGUn63UV28B0T-12" target="1egGHa9eGUn63UV28B0T-20">
          <mxGeometry relative="1" as="geometry" />
        </mxCell>
        <mxCell id="1egGHa9eGUn63UV28B0T-12" value="用户组织/授权" style="rounded=0;whiteSpace=wrap;html=1;fillColor=#dae8fc;strokeColor=#6c8ebf;" vertex="1" parent="1">
          <mxGeometry x="550" y="290" width="160" height="50" as="geometry" />
        </mxCell>
        <mxCell id="1egGHa9eGUn63UV28B0T-13" value="云桌面/云应用/docer" style="rounded=0;whiteSpace=wrap;html=1;" vertex="1" parent="1">
          <mxGeometry x="550" y="370" width="160" height="50" as="geometry" />
        </mxCell>
        <mxCell id="1egGHa9eGUn63UV28B0T-15" value="指纹" style="rounded=0;whiteSpace=wrap;html=1;" vertex="1" parent="1">
          <mxGeometry x="130" y="370" width="160" height="50" as="geometry" />
        </mxCell>
        <mxCell id="1egGHa9eGUn63UV28B0T-16" value="钉钉登录" style="rounded=0;whiteSpace=wrap;html=1;fillColor=#dae8fc;strokeColor=#6c8ebf;" vertex="1" parent="1">
          <mxGeometry x="130" y="290" width="160" height="50" as="geometry" />
        </mxCell>
        <mxCell id="1egGHa9eGUn63UV28B0T-19" value="Oauth2.0" style="rounded=0;whiteSpace=wrap;html=1;" vertex="1" parent="1">
          <mxGeometry x="-60" y="370" width="160" height="50" as="geometry" />
        </mxCell>
        <mxCell id="1egGHa9eGUn63UV28B0T-20" value="钉钉" style="rounded=1;whiteSpace=wrap;html=1;" vertex="1" parent="1">
          <mxGeometry x="810" y="245" width="100" height="140" as="geometry" />
        </mxCell>
        <mxCell id="1egGHa9eGUn63UV28B0T-24" value="DB" style="shape=cylinder3;whiteSpace=wrap;html=1;boundedLbl=1;backgroundOutline=1;size=15;fillColor=#dae8fc;strokeColor=#6c8ebf;" vertex="1" parent="1">
          <mxGeometry x="-80" y="450" width="780" height="70" as="geometry" />
        </mxCell>
        <mxCell id="1egGHa9eGUn63UV28B0T-29" value="&lt;font style=&quot;font-size: 21px&quot;&gt;light&lt;/font&gt;" style="text;html=1;align=center;verticalAlign=middle;resizable=0;points=[];autosize=1;" vertex="1" parent="1">
          <mxGeometry x="-90" y="260" width="50" height="20" as="geometry" />
        </mxCell>
        <mxCell id="1egGHa9eGUn63UV28B0T-31" value="&lt;font style=&quot;font-size: 21px&quot;&gt;Admin&lt;/font&gt;" style="text;html=1;align=center;verticalAlign=middle;resizable=0;points=[];autosize=1;" vertex="1" parent="1">
          <mxGeometry x="330" y="260" width="70" height="20" as="geometry" />
        </mxCell>
        <mxCell id="1egGHa9eGUn63UV28B0T-32" value="同步" style="text;html=1;align=center;verticalAlign=middle;resizable=0;points=[];autosize=1;" vertex="1" parent="1">
          <mxGeometry x="750" y="290" width="40" height="20" as="geometry" />
        </mxCell>
      </root>
    </mxGraphModel>
  </diagram>
</mxfile>
